<mxfile host="app.diagrams.net" modified="2024-03-18T08:49:18.721Z" agent="Mozilla/5.0 (Windows NT 10.0; Win64; x64) AppleWebKit/537.36 (KHTML, like Gecko) Chrome/122.0.0.0 Safari/537.36" etag="TAPxcGSgPO6AJuYuyE0v" version="24.0.7" type="device">
  <diagram name="Trang-1" id="UvDl3RivTXZQpmu7C-hD">
    <mxGraphModel dx="1328" dy="493" grid="1" gridSize="10" guides="1" tooltips="1" connect="1" arrows="1" fold="1" page="1" pageScale="1" pageWidth="827" pageHeight="1169" math="0" shadow="0">
      <root>
        <mxCell id="0" />
        <mxCell id="1" parent="0" />
        <mxCell id="ZQ3H37s_ChsrPxQuk-Mt-3" value="Phòng ban" style="rounded=0;whiteSpace=wrap;html=1;" parent="1" vertex="1">
          <mxGeometry x="180" y="360" width="90" height="50" as="geometry" />
        </mxCell>
        <mxCell id="ZQ3H37s_ChsrPxQuk-Mt-4" value="Đề án" style="rounded=0;whiteSpace=wrap;html=1;" parent="1" vertex="1">
          <mxGeometry x="580" y="330" width="120" height="60" as="geometry" />
        </mxCell>
        <mxCell id="ZQ3H37s_ChsrPxQuk-Mt-5" value="Nhân viên" style="rounded=0;whiteSpace=wrap;html=1;" parent="1" vertex="1">
          <mxGeometry x="200" y="555" width="120" height="60" as="geometry" />
        </mxCell>
        <mxCell id="ZQ3H37s_ChsrPxQuk-Mt-10" value="tên phòng ban" style="ellipse;whiteSpace=wrap;html=1;" parent="1" vertex="1">
          <mxGeometry x="210" y="285" width="70" height="40" as="geometry" />
        </mxCell>
        <mxCell id="ZQ3H37s_ChsrPxQuk-Mt-11" value="&lt;u&gt;Mã phòng&lt;/u&gt;" style="ellipse;whiteSpace=wrap;html=1;" parent="1" vertex="1">
          <mxGeometry x="110" y="300" width="70" height="40" as="geometry" />
        </mxCell>
        <mxCell id="ZQ3H37s_ChsrPxQuk-Mt-15" value="" style="endArrow=none;html=1;rounded=0;exitX=0.5;exitY=0;exitDx=0;exitDy=0;entryX=0.5;entryY=1;entryDx=0;entryDy=0;" parent="1" source="ZQ3H37s_ChsrPxQuk-Mt-3" target="ZQ3H37s_ChsrPxQuk-Mt-10" edge="1">
          <mxGeometry relative="1" as="geometry">
            <mxPoint x="310" y="460" as="sourcePoint" />
            <mxPoint x="470" y="460" as="targetPoint" />
          </mxGeometry>
        </mxCell>
        <mxCell id="ZQ3H37s_ChsrPxQuk-Mt-20" value="" style="endArrow=none;html=1;rounded=0;exitX=0.5;exitY=1;exitDx=0;exitDy=0;entryX=0;entryY=0;entryDx=0;entryDy=0;" parent="1" source="ZQ3H37s_ChsrPxQuk-Mt-11" target="ZQ3H37s_ChsrPxQuk-Mt-3" edge="1">
          <mxGeometry width="50" height="50" relative="1" as="geometry">
            <mxPoint x="360" y="480" as="sourcePoint" />
            <mxPoint x="410" y="430" as="targetPoint" />
          </mxGeometry>
        </mxCell>
        <mxCell id="ZQ3H37s_ChsrPxQuk-Mt-22" value="Tên đề án" style="ellipse;whiteSpace=wrap;html=1;" parent="1" vertex="1">
          <mxGeometry x="670" y="410" width="70" height="40" as="geometry" />
        </mxCell>
        <mxCell id="ZQ3H37s_ChsrPxQuk-Mt-23" value="&lt;u&gt;Mã đề án&lt;/u&gt;" style="ellipse;whiteSpace=wrap;html=1;" parent="1" vertex="1">
          <mxGeometry x="710" y="265" width="60" height="50" as="geometry" />
        </mxCell>
        <mxCell id="ZQ3H37s_ChsrPxQuk-Mt-24" value="" style="endArrow=none;html=1;rounded=0;entryX=0.5;entryY=0;entryDx=0;entryDy=0;exitX=0;exitY=0.5;exitDx=0;exitDy=0;" parent="1" source="ZQ3H37s_ChsrPxQuk-Mt-23" target="ZQ3H37s_ChsrPxQuk-Mt-4" edge="1">
          <mxGeometry width="50" height="50" relative="1" as="geometry">
            <mxPoint x="510" y="480" as="sourcePoint" />
            <mxPoint x="560" y="430" as="targetPoint" />
          </mxGeometry>
        </mxCell>
        <mxCell id="ZQ3H37s_ChsrPxQuk-Mt-25" value="" style="endArrow=none;html=1;rounded=0;entryX=0.75;entryY=1;entryDx=0;entryDy=0;exitX=0;exitY=0.5;exitDx=0;exitDy=0;" parent="1" source="ZQ3H37s_ChsrPxQuk-Mt-22" target="ZQ3H37s_ChsrPxQuk-Mt-4" edge="1">
          <mxGeometry width="50" height="50" relative="1" as="geometry">
            <mxPoint x="510" y="480" as="sourcePoint" />
            <mxPoint x="560" y="430" as="targetPoint" />
          </mxGeometry>
        </mxCell>
        <mxCell id="ZQ3H37s_ChsrPxQuk-Mt-26" value="&lt;u&gt;Mã số nhân viên&lt;/u&gt;" style="ellipse;whiteSpace=wrap;html=1;" parent="1" vertex="1">
          <mxGeometry x="70" y="650" width="90" height="50" as="geometry" />
        </mxCell>
        <mxCell id="ZQ3H37s_ChsrPxQuk-Mt-27" value="Tên nhân viên" style="ellipse;whiteSpace=wrap;html=1;" parent="1" vertex="1">
          <mxGeometry x="160" y="670" width="80" height="50" as="geometry" />
        </mxCell>
        <mxCell id="ZQ3H37s_ChsrPxQuk-Mt-28" value="Địa chỉ" style="ellipse;whiteSpace=wrap;html=1;" parent="1" vertex="1">
          <mxGeometry x="250" y="680" width="70" height="50" as="geometry" />
        </mxCell>
        <mxCell id="ZQ3H37s_ChsrPxQuk-Mt-29" value="Ngày sinh" style="ellipse;whiteSpace=wrap;html=1;" parent="1" vertex="1">
          <mxGeometry x="280" y="640" width="70" height="40" as="geometry" />
        </mxCell>
        <mxCell id="ZQ3H37s_ChsrPxQuk-Mt-30" value="Phái" style="ellipse;whiteSpace=wrap;html=1;" parent="1" vertex="1">
          <mxGeometry x="330" y="680" width="90" height="50" as="geometry" />
        </mxCell>
        <mxCell id="ZQ3H37s_ChsrPxQuk-Mt-31" value="Lương" style="ellipse;whiteSpace=wrap;html=1;" parent="1" vertex="1">
          <mxGeometry x="40" y="590" width="90" height="50" as="geometry" />
        </mxCell>
        <mxCell id="ZQ3H37s_ChsrPxQuk-Mt-32" value="" style="endArrow=none;html=1;rounded=0;exitX=0;exitY=0.25;exitDx=0;exitDy=0;entryX=1;entryY=0.5;entryDx=0;entryDy=0;" parent="1" source="ZQ3H37s_ChsrPxQuk-Mt-5" target="ZQ3H37s_ChsrPxQuk-Mt-31" edge="1">
          <mxGeometry width="50" height="50" relative="1" as="geometry">
            <mxPoint x="320" y="560" as="sourcePoint" />
            <mxPoint x="370" y="510" as="targetPoint" />
          </mxGeometry>
        </mxCell>
        <mxCell id="ZQ3H37s_ChsrPxQuk-Mt-33" value="" style="endArrow=none;html=1;rounded=0;exitX=0;exitY=0.5;exitDx=0;exitDy=0;entryX=1;entryY=0.5;entryDx=0;entryDy=0;" parent="1" source="ZQ3H37s_ChsrPxQuk-Mt-5" target="ZQ3H37s_ChsrPxQuk-Mt-26" edge="1">
          <mxGeometry width="50" height="50" relative="1" as="geometry">
            <mxPoint x="320" y="560" as="sourcePoint" />
            <mxPoint x="180" y="580" as="targetPoint" />
          </mxGeometry>
        </mxCell>
        <mxCell id="ZQ3H37s_ChsrPxQuk-Mt-34" value="" style="endArrow=none;html=1;rounded=0;exitX=0;exitY=0.75;exitDx=0;exitDy=0;entryX=0.5;entryY=0;entryDx=0;entryDy=0;" parent="1" source="ZQ3H37s_ChsrPxQuk-Mt-5" target="ZQ3H37s_ChsrPxQuk-Mt-27" edge="1">
          <mxGeometry width="50" height="50" relative="1" as="geometry">
            <mxPoint x="320" y="560" as="sourcePoint" />
            <mxPoint x="370" y="510" as="targetPoint" />
          </mxGeometry>
        </mxCell>
        <mxCell id="ZQ3H37s_ChsrPxQuk-Mt-35" value="" style="endArrow=none;html=1;rounded=0;exitX=0.25;exitY=1;exitDx=0;exitDy=0;entryX=0.5;entryY=0;entryDx=0;entryDy=0;" parent="1" source="ZQ3H37s_ChsrPxQuk-Mt-5" target="ZQ3H37s_ChsrPxQuk-Mt-28" edge="1">
          <mxGeometry width="50" height="50" relative="1" as="geometry">
            <mxPoint x="320" y="560" as="sourcePoint" />
            <mxPoint x="370" y="510" as="targetPoint" />
          </mxGeometry>
        </mxCell>
        <mxCell id="ZQ3H37s_ChsrPxQuk-Mt-36" value="" style="endArrow=none;html=1;rounded=0;exitX=0.5;exitY=1;exitDx=0;exitDy=0;entryX=0.5;entryY=0;entryDx=0;entryDy=0;" parent="1" source="ZQ3H37s_ChsrPxQuk-Mt-5" target="ZQ3H37s_ChsrPxQuk-Mt-29" edge="1">
          <mxGeometry width="50" height="50" relative="1" as="geometry">
            <mxPoint x="320" y="560" as="sourcePoint" />
            <mxPoint x="370" y="510" as="targetPoint" />
          </mxGeometry>
        </mxCell>
        <mxCell id="ZQ3H37s_ChsrPxQuk-Mt-37" value="" style="endArrow=none;html=1;rounded=0;exitX=1;exitY=1;exitDx=0;exitDy=0;entryX=0.5;entryY=0;entryDx=0;entryDy=0;" parent="1" source="ZQ3H37s_ChsrPxQuk-Mt-5" target="ZQ3H37s_ChsrPxQuk-Mt-30" edge="1">
          <mxGeometry width="50" height="50" relative="1" as="geometry">
            <mxPoint x="320" y="560" as="sourcePoint" />
            <mxPoint x="370" y="510" as="targetPoint" />
          </mxGeometry>
        </mxCell>
        <mxCell id="ZQ3H37s_ChsrPxQuk-Mt-38" value="Là trưởng phòng" style="rhombus;whiteSpace=wrap;html=1;" parent="1" vertex="1">
          <mxGeometry x="310" y="440" width="90" height="60" as="geometry" />
        </mxCell>
        <mxCell id="ZQ3H37s_ChsrPxQuk-Mt-41" value="Làm việc" style="rhombus;whiteSpace=wrap;html=1;" parent="1" vertex="1">
          <mxGeometry x="50" y="470" width="80" height="55" as="geometry" />
        </mxCell>
        <mxCell id="ZQ3H37s_ChsrPxQuk-Mt-64" value="(1,1)" style="endArrow=none;html=1;rounded=0;exitX=0;exitY=0;exitDx=0;exitDy=0;entryX=0.5;entryY=1;entryDx=0;entryDy=0;" parent="1" source="ZQ3H37s_ChsrPxQuk-Mt-5" target="ZQ3H37s_ChsrPxQuk-Mt-41" edge="1">
          <mxGeometry relative="1" as="geometry">
            <mxPoint x="190" y="510" as="sourcePoint" />
            <mxPoint x="350" y="510" as="targetPoint" />
          </mxGeometry>
        </mxCell>
        <mxCell id="ZQ3H37s_ChsrPxQuk-Mt-65" value="(1,n)" style="endArrow=none;html=1;rounded=0;exitX=0.5;exitY=0;exitDx=0;exitDy=0;entryX=0;entryY=1;entryDx=0;entryDy=0;" parent="1" source="ZQ3H37s_ChsrPxQuk-Mt-41" target="ZQ3H37s_ChsrPxQuk-Mt-3" edge="1">
          <mxGeometry relative="1" as="geometry">
            <mxPoint x="170" y="490" as="sourcePoint" />
            <mxPoint x="330" y="490" as="targetPoint" />
          </mxGeometry>
        </mxCell>
        <mxCell id="ZQ3H37s_ChsrPxQuk-Mt-66" value="(0,1)" style="endArrow=none;html=1;rounded=0;exitX=1;exitY=0;exitDx=0;exitDy=0;entryX=0.5;entryY=1;entryDx=0;entryDy=0;" parent="1" source="ZQ3H37s_ChsrPxQuk-Mt-5" target="ZQ3H37s_ChsrPxQuk-Mt-38" edge="1">
          <mxGeometry relative="1" as="geometry">
            <mxPoint x="320" y="550" as="sourcePoint" />
            <mxPoint x="370" y="570" as="targetPoint" />
          </mxGeometry>
        </mxCell>
        <mxCell id="ZQ3H37s_ChsrPxQuk-Mt-67" value="(1,1)" style="endArrow=none;html=1;rounded=0;exitX=1;exitY=1;exitDx=0;exitDy=0;entryX=0.5;entryY=0;entryDx=0;entryDy=0;" parent="1" source="ZQ3H37s_ChsrPxQuk-Mt-3" target="ZQ3H37s_ChsrPxQuk-Mt-38" edge="1">
          <mxGeometry relative="1" as="geometry">
            <mxPoint x="210" y="440" as="sourcePoint" />
            <mxPoint x="370" y="440" as="targetPoint" />
          </mxGeometry>
        </mxCell>
        <mxCell id="ZQ3H37s_ChsrPxQuk-Mt-68" value="Chủ trì" style="rhombus;whiteSpace=wrap;html=1;" parent="1" vertex="1">
          <mxGeometry x="369" y="285" width="90" height="50" as="geometry" />
        </mxCell>
        <mxCell id="ZQ3H37s_ChsrPxQuk-Mt-69" value="(0,1)" style="endArrow=none;html=1;rounded=0;exitX=1;exitY=0;exitDx=0;exitDy=0;entryX=0;entryY=0.5;entryDx=0;entryDy=0;" parent="1" source="ZQ3H37s_ChsrPxQuk-Mt-3" target="ZQ3H37s_ChsrPxQuk-Mt-68" edge="1">
          <mxGeometry width="50" height="50" relative="1" as="geometry">
            <mxPoint x="310" y="450" as="sourcePoint" />
            <mxPoint x="360" y="400" as="targetPoint" />
          </mxGeometry>
        </mxCell>
        <mxCell id="ZQ3H37s_ChsrPxQuk-Mt-70" value="(1,1)" style="endArrow=none;html=1;rounded=0;exitX=1;exitY=0.5;exitDx=0;exitDy=0;entryX=0;entryY=0;entryDx=0;entryDy=0;" parent="1" source="ZQ3H37s_ChsrPxQuk-Mt-68" target="ZQ3H37s_ChsrPxQuk-Mt-4" edge="1">
          <mxGeometry width="50" height="50" relative="1" as="geometry">
            <mxPoint x="410" y="450" as="sourcePoint" />
            <mxPoint x="460" y="400" as="targetPoint" />
          </mxGeometry>
        </mxCell>
        <mxCell id="ZQ3H37s_ChsrPxQuk-Mt-71" value="Triển khai" style="rhombus;whiteSpace=wrap;html=1;" parent="1" vertex="1">
          <mxGeometry x="380" y="360" width="90" height="50" as="geometry" />
        </mxCell>
        <mxCell id="ZQ3H37s_ChsrPxQuk-Mt-72" value="Ngày nhận chức" style="ellipse;whiteSpace=wrap;html=1;" parent="1" vertex="1">
          <mxGeometry x="390" y="500" width="70" height="30" as="geometry" />
        </mxCell>
        <mxCell id="ZQ3H37s_ChsrPxQuk-Mt-75" value="" style="endArrow=none;html=1;rounded=0;exitX=1;exitY=0.5;exitDx=0;exitDy=0;entryX=0.5;entryY=0;entryDx=0;entryDy=0;" parent="1" source="ZQ3H37s_ChsrPxQuk-Mt-38" target="ZQ3H37s_ChsrPxQuk-Mt-72" edge="1">
          <mxGeometry width="50" height="50" relative="1" as="geometry">
            <mxPoint x="300" y="450" as="sourcePoint" />
            <mxPoint x="350" y="400" as="targetPoint" />
          </mxGeometry>
        </mxCell>
        <mxCell id="ZQ3H37s_ChsrPxQuk-Mt-76" value="(1,n)" style="endArrow=none;html=1;rounded=0;exitX=1;exitY=0.5;exitDx=0;exitDy=0;entryX=0;entryY=0.5;entryDx=0;entryDy=0;" parent="1" source="ZQ3H37s_ChsrPxQuk-Mt-3" target="ZQ3H37s_ChsrPxQuk-Mt-71" edge="1">
          <mxGeometry width="50" height="50" relative="1" as="geometry">
            <mxPoint x="400" y="440" as="sourcePoint" />
            <mxPoint x="450" y="390" as="targetPoint" />
          </mxGeometry>
        </mxCell>
        <mxCell id="ZQ3H37s_ChsrPxQuk-Mt-77" value="(1,1)" style="endArrow=none;html=1;rounded=0;entryX=0;entryY=1;entryDx=0;entryDy=0;exitX=1;exitY=0.5;exitDx=0;exitDy=0;" parent="1" source="ZQ3H37s_ChsrPxQuk-Mt-71" target="ZQ3H37s_ChsrPxQuk-Mt-4" edge="1">
          <mxGeometry width="50" height="50" relative="1" as="geometry">
            <mxPoint x="400" y="440" as="sourcePoint" />
            <mxPoint x="450" y="390" as="targetPoint" />
          </mxGeometry>
        </mxCell>
        <mxCell id="ZQ3H37s_ChsrPxQuk-Mt-78" value="Địa điểm" style="ellipse;whiteSpace=wrap;html=1;" parent="1" vertex="1">
          <mxGeometry x="440" y="450" width="60" height="40" as="geometry" />
        </mxCell>
        <mxCell id="ZQ3H37s_ChsrPxQuk-Mt-79" value="" style="endArrow=none;html=1;rounded=0;exitX=0.5;exitY=1;exitDx=0;exitDy=0;entryX=0.5;entryY=0;entryDx=0;entryDy=0;" parent="1" source="ZQ3H37s_ChsrPxQuk-Mt-71" target="ZQ3H37s_ChsrPxQuk-Mt-78" edge="1">
          <mxGeometry width="50" height="50" relative="1" as="geometry">
            <mxPoint x="400" y="440" as="sourcePoint" />
            <mxPoint x="450" y="390" as="targetPoint" />
          </mxGeometry>
        </mxCell>
        <mxCell id="ZQ3H37s_ChsrPxQuk-Mt-80" value="Tham gia" style="rhombus;whiteSpace=wrap;html=1;" parent="1" vertex="1">
          <mxGeometry x="470" y="514.5" width="120" height="70" as="geometry" />
        </mxCell>
        <mxCell id="ZQ3H37s_ChsrPxQuk-Mt-81" value="(1,n)" style="endArrow=none;html=1;rounded=0;exitX=1;exitY=0.5;exitDx=0;exitDy=0;entryX=0;entryY=0.5;entryDx=0;entryDy=0;" parent="1" source="ZQ3H37s_ChsrPxQuk-Mt-5" target="ZQ3H37s_ChsrPxQuk-Mt-80" edge="1">
          <mxGeometry width="50" height="50" relative="1" as="geometry">
            <mxPoint x="440" y="560" as="sourcePoint" />
            <mxPoint x="490" y="510" as="targetPoint" />
          </mxGeometry>
        </mxCell>
        <mxCell id="ZQ3H37s_ChsrPxQuk-Mt-83" value="(0,n)" style="endArrow=none;html=1;rounded=0;exitX=0.5;exitY=0;exitDx=0;exitDy=0;entryX=0.5;entryY=1;entryDx=0;entryDy=0;" parent="1" source="ZQ3H37s_ChsrPxQuk-Mt-80" target="ZQ3H37s_ChsrPxQuk-Mt-4" edge="1">
          <mxGeometry width="50" height="50" relative="1" as="geometry">
            <mxPoint x="440" y="560" as="sourcePoint" />
            <mxPoint x="490" y="510" as="targetPoint" />
          </mxGeometry>
        </mxCell>
        <mxCell id="ZQ3H37s_ChsrPxQuk-Mt-84" value="Số giờ làm việc" style="ellipse;whiteSpace=wrap;html=1;" parent="1" vertex="1">
          <mxGeometry x="630" y="514.5" width="90" height="50" as="geometry" />
        </mxCell>
        <mxCell id="ZQ3H37s_ChsrPxQuk-Mt-85" value="" style="endArrow=none;html=1;rounded=0;entryX=0;entryY=0.5;entryDx=0;entryDy=0;exitX=1;exitY=0.5;exitDx=0;exitDy=0;" parent="1" source="ZQ3H37s_ChsrPxQuk-Mt-80" target="ZQ3H37s_ChsrPxQuk-Mt-84" edge="1">
          <mxGeometry width="50" height="50" relative="1" as="geometry">
            <mxPoint x="440" y="560" as="sourcePoint" />
            <mxPoint x="490" y="510" as="targetPoint" />
          </mxGeometry>
        </mxCell>
        <mxCell id="ZQ3H37s_ChsrPxQuk-Mt-86" value="Quản lí" style="rhombus;whiteSpace=wrap;html=1;" parent="1" vertex="1">
          <mxGeometry x="210" y="462.5" width="80" height="42.5" as="geometry" />
        </mxCell>
        <mxCell id="ZQ3H37s_ChsrPxQuk-Mt-87" value="(1,n)" style="endArrow=none;html=1;rounded=0;entryX=0;entryY=0.5;entryDx=0;entryDy=0;exitX=0.25;exitY=0;exitDx=0;exitDy=0;" parent="1" source="ZQ3H37s_ChsrPxQuk-Mt-5" target="ZQ3H37s_ChsrPxQuk-Mt-86" edge="1">
          <mxGeometry width="50" height="50" relative="1" as="geometry">
            <mxPoint x="140" y="570" as="sourcePoint" />
            <mxPoint x="190" y="520" as="targetPoint" />
          </mxGeometry>
        </mxCell>
        <mxCell id="ZQ3H37s_ChsrPxQuk-Mt-88" value="(1,1)" style="endArrow=none;html=1;rounded=0;entryX=1;entryY=0.5;entryDx=0;entryDy=0;exitX=0.75;exitY=0;exitDx=0;exitDy=0;" parent="1" source="ZQ3H37s_ChsrPxQuk-Mt-5" target="ZQ3H37s_ChsrPxQuk-Mt-86" edge="1">
          <mxGeometry width="50" height="50" relative="1" as="geometry">
            <mxPoint x="190" y="570" as="sourcePoint" />
            <mxPoint x="240" y="520" as="targetPoint" />
          </mxGeometry>
        </mxCell>
        <mxCell id="ZQ3H37s_ChsrPxQuk-Mt-91" value="Thân nhân" style="shape=ext;margin=3;double=1;whiteSpace=wrap;html=1;align=center;" parent="1" vertex="1">
          <mxGeometry x="590" y="600" width="100" height="40" as="geometry" />
        </mxCell>
        <mxCell id="ZQ3H37s_ChsrPxQuk-Mt-92" value="Tên" style="ellipse;whiteSpace=wrap;html=1;" parent="1" vertex="1">
          <mxGeometry x="600" y="675" width="80" height="40" as="geometry" />
        </mxCell>
        <mxCell id="ZQ3H37s_ChsrPxQuk-Mt-93" value="Phái" style="ellipse;whiteSpace=wrap;html=1;" parent="1" vertex="1">
          <mxGeometry x="700" y="660" width="70" height="40" as="geometry" />
        </mxCell>
        <mxCell id="ZQ3H37s_ChsrPxQuk-Mt-94" value="Ngày sinh" style="ellipse;whiteSpace=wrap;html=1;" parent="1" vertex="1">
          <mxGeometry x="730" y="610" width="80" height="50" as="geometry" />
        </mxCell>
        <mxCell id="ZQ3H37s_ChsrPxQuk-Mt-95" value="" style="endArrow=none;html=1;rounded=0;exitX=0.5;exitY=0;exitDx=0;exitDy=0;entryX=0.5;entryY=1;entryDx=0;entryDy=0;" parent="1" source="ZQ3H37s_ChsrPxQuk-Mt-92" target="ZQ3H37s_ChsrPxQuk-Mt-91" edge="1">
          <mxGeometry width="50" height="50" relative="1" as="geometry">
            <mxPoint x="590" y="670" as="sourcePoint" />
            <mxPoint x="640" y="620" as="targetPoint" />
          </mxGeometry>
        </mxCell>
        <mxCell id="ZQ3H37s_ChsrPxQuk-Mt-96" value="" style="endArrow=none;html=1;rounded=0;entryX=0;entryY=0.5;entryDx=0;entryDy=0;exitX=1;exitY=1;exitDx=0;exitDy=0;" parent="1" source="ZQ3H37s_ChsrPxQuk-Mt-91" target="ZQ3H37s_ChsrPxQuk-Mt-93" edge="1">
          <mxGeometry width="50" height="50" relative="1" as="geometry">
            <mxPoint x="590" y="670" as="sourcePoint" />
            <mxPoint x="640" y="620" as="targetPoint" />
          </mxGeometry>
        </mxCell>
        <mxCell id="ZQ3H37s_ChsrPxQuk-Mt-97" value="" style="endArrow=none;html=1;rounded=0;entryX=0;entryY=0.5;entryDx=0;entryDy=0;exitX=1;exitY=0.5;exitDx=0;exitDy=0;" parent="1" source="ZQ3H37s_ChsrPxQuk-Mt-91" target="ZQ3H37s_ChsrPxQuk-Mt-94" edge="1">
          <mxGeometry width="50" height="50" relative="1" as="geometry">
            <mxPoint x="590" y="670" as="sourcePoint" />
            <mxPoint x="640" y="620" as="targetPoint" />
          </mxGeometry>
        </mxCell>
        <mxCell id="ZQ3H37s_ChsrPxQuk-Mt-101" value="(1,1)" style="endArrow=none;html=1;rounded=0;entryX=0;entryY=0.5;entryDx=0;entryDy=0;exitX=1;exitY=0.5;exitDx=0;exitDy=0;" parent="1" target="ZQ3H37s_ChsrPxQuk-Mt-91" edge="1">
          <mxGeometry relative="1" as="geometry">
            <mxPoint x="550" y="630" as="sourcePoint" />
            <mxPoint x="520" y="520" as="targetPoint" />
          </mxGeometry>
        </mxCell>
        <mxCell id="IbqKJCmevMctZb_8BN6G-1" style="edgeStyle=orthogonalEdgeStyle;rounded=0;orthogonalLoop=1;jettySize=auto;html=1;exitX=0;exitY=0.5;exitDx=0;exitDy=0;entryX=1;entryY=0.75;entryDx=0;entryDy=0;" parent="1" source="ZQ3H37s_ChsrPxQuk-Mt-104" target="ZQ3H37s_ChsrPxQuk-Mt-5" edge="1">
          <mxGeometry relative="1" as="geometry" />
        </mxCell>
        <mxCell id="ZQ3H37s_ChsrPxQuk-Mt-104" value="Là thân nhân" style="shape=rhombus;double=1;perimeter=rhombusPerimeter;whiteSpace=wrap;html=1;align=center;" parent="1" vertex="1">
          <mxGeometry x="430" y="600" width="120" height="60" as="geometry" />
        </mxCell>
      </root>
    </mxGraphModel>
  </diagram>
</mxfile>
